# xmcd
#
# Track frame offsets:
#        150
#        13406
#        30263
#        44094
#        62333
#        78133
#        108517
#        118814
#        138465
#        153481
#        168633
#        182463
#        194179
#        208026
#        232572
#        249032
#        271670
#        285858
#        308821
#        327102
#
# Disc length: 4714 seconds
#
# Revision: 1
# Processed by: cddbd v1.5.2PL0 Copyright (c) Steve Scherf et al.
# Submitted via: jack 3.1.1
#
DISCID=07126814
DTITLE=Duster Bennet - Bright Lights Big City CD2
DYEAR=2002
DGENRE=Blues
TTITLE0=Bright Lights, Big City
TTITLE1=Rock Of Ages Cleft For Me
TTITLE2=Morning Star
TTITLE3=Lone Wolf Blues
TTITLE4=Just Like A Fish (live)
TTITLE5=I Choose To Sing The Blues/Just Like I Treat You (live)
TTITLE6=Can't Nobody Hide From God
TTITLE7=Tell Me Baby
TTITLE8=I've Been Down So Long
TTITLE9=Blue River Rising
TTITLE10=Pride Of Place
TTITLE11=What'cha Gonna Do
TTITLE12=I Feel So Good
TTITLE13=Back In The Same Old Bag
TTITLE14=Walking Pork Chops
TTITLE15=Wasted Time
TTITLE16=Them That Got
TTITLE17=Summertime/Gone Gershwin
TTITLE18=All You Need Is Love
TTITLE19=My Own Will
EXTD=
EXTT0=
EXTT1=
EXTT2=
EXTT3=
EXTT4=
EXTT5=
EXTT6=
EXTT7=
EXTT8=
EXTT9=
EXTT10=
EXTT11=
EXTT12=
EXTT13=
EXTT14=
EXTT15=
EXTT16=
EXTT17=
EXTT18=
EXTT19=
PLAYORDER=
